<svg width="108" height="108" viewBox="0 0 108 108" fill="none" xmlns="http://www.w3.org/2000/svg">
<g clip-path="url(#clip0_21536_192)">
<mask id="mask0_21536_192" style="mask-type:luminance" maskUnits="userSpaceOnUse" x="17" y="26" width="74" height="56">
<path d="M90.2499 26.25H17.873V81.989H90.2499V26.25Z" fill="white"/>
</mask>
<g mask="url(#mask0_21536_192)">
<path fill-rule="evenodd" clip-rule="evenodd" d="M32.6078 74.8431C34.5824 74.8431 36.1831 76.4428 36.1831 78.4158C36.1831 80.3893 34.5824 81.989 32.6078 81.989C30.6332 81.989 29.0325 80.3893 29.0325 78.4158C29.0325 76.4428 30.6332 74.8431 32.6078 74.8431ZM76.5841 42.7752C79.1766 49.8318 72.6514 59.8363 61.0317 66.0891C55.4004 69.2155 49.3223 70.9124 44.0489 70.9124C38.3283 70.9124 34.1273 68.9473 32.1609 65.3746C30.1945 61.8014 30.8202 57.2459 33.8592 52.4222C34.6637 51.1716 35.6468 49.9211 36.6301 48.8494C36.1831 50.9038 36.0938 53.0475 36.4513 55.1023C34.4849 58.4072 34.0379 61.4444 35.2894 63.6773C36.6301 66.0891 39.6691 67.429 44.0489 67.429C48.6966 67.429 54.149 65.9106 59.3336 63.052C68.8079 57.8712 74.7967 49.6533 73.3664 44.383C74.5285 44.1151 75.6907 43.5791 76.5841 42.7752ZM54.5308 42.7723C53.5049 42.7723 53.1734 43.2436 52.9261 43.8771L51.7476 47.7162H49.8739C49.6241 47.1764 49.5373 46.5658 48.6585 46.5658V46.5629L46.83 46.5784C46.0589 46.5784 45.8037 47.0444 45.9906 47.7162L47.6745 54.9254C48.0479 56.2581 48.2956 56.4962 48.5479 56.4962H49.0374H54.2441C55.3279 56.4962 55.6648 56.2707 56.0332 55.2749L59.6009 43.7529C59.8826 42.9598 59.1668 42.7723 58.8223 42.7723H54.5308ZM53.1658 38.9342C59.0896 38.9342 63.892 43.7333 63.892 49.6533C63.892 55.5733 59.0896 60.3723 53.1658 60.3723C47.242 60.3723 42.44 55.5733 42.44 49.6533C42.44 43.7333 47.242 38.9342 53.1658 38.9342ZM71.9364 33.7533C73.9112 33.7533 75.5117 35.353 75.5117 37.3263C75.5117 39.2997 73.9112 40.8993 71.9364 40.8993C69.9617 40.8993 68.3612 39.2997 68.3612 37.3263C68.3612 35.353 69.9617 33.7533 71.9364 33.7533ZM70.3275 26.25C79.087 26.25 85.6122 29.1977 88.5617 34.6466C91.5113 40.0061 90.5281 47.0629 86.1482 54.3873C81.5898 61.4444 74.0818 68.0542 65.0537 72.9672C56.5625 77.612 47.6242 80.2024 39.6691 80.5599C39.8479 79.8454 40.0266 79.1304 40.0266 78.4158C40.0266 77.8798 39.9372 77.4335 39.8479 76.9867C47.1774 76.6293 55.4004 74.1285 63.2663 69.8408C71.7575 65.1064 78.8187 58.9432 83.0197 52.4222C86.9529 46.259 87.936 40.4527 85.6122 36.2544C83.2879 32.0562 77.9252 29.7337 70.5061 29.7337C62.7299 29.7337 53.7022 32.3241 45.2106 36.969C28.1387 46.259 17.8596 61.6229 22.7757 70.5554C23.6695 72.2527 25.0103 73.5925 26.7086 74.5749C25.9935 75.5576 25.6359 76.7189 25.5466 77.9695C23.0438 76.7189 20.988 74.6641 19.5579 72.2527C13.5693 61.2654 24.0271 44.383 43.3338 33.932C52.3616 28.9297 61.9256 26.25 70.3275 26.25Z" fill="url(#paint0_linear_21536_192)"/>
<path fill-rule="evenodd" clip-rule="evenodd" d="M48.6774 46.5339L46.8498 46.549C46.079 46.549 45.8238 47.0176 46.0107 47.6915L47.6938 54.9308C48.0672 56.269 48.3145 56.5083 48.5672 56.5083H49.0563C49.6053 55.0427 51.4103 49.1851 51.6936 47.7158C50.5248 47.7158 51.0612 47.6915 49.8928 47.6915C49.643 47.1496 49.5558 46.5365 48.6774 46.5365V46.5339Z" stroke="url(#paint1_linear_21536_192)" stroke-width="0.576249" stroke-miterlimit="8"/>
<path fill-rule="evenodd" clip-rule="evenodd" d="M54.5242 42.7592H58.8111C59.1555 42.7592 59.8701 42.947 59.5889 43.7414L56.0249 55.282C55.657 56.2795 55.3205 56.5054 54.2375 56.5054H48.5471C48.8443 56.5054 49.1569 55.9471 49.5328 54.9317L52.9207 43.8658C53.168 43.2313 53.4991 42.7592 54.5242 42.7592Z" stroke="url(#paint2_linear_21536_192)" stroke-width="0.576249" stroke-miterlimit="8"/>
</g>
</g>
<defs>
<linearGradient id="paint0_linear_21536_192" x1="63.9687" y1="18.8647" x2="44.155" y2="89.3742" gradientUnits="userSpaceOnUse">
<stop stop-color="#B550FA"/>
<stop offset="0.5" stop-color="#D378D4"/>
<stop offset="1" stop-color="#F2A0AF"/>
</linearGradient>
<linearGradient id="paint1_linear_21536_192" x1="48.8534" y1="46.2435" x2="48.8534" y2="56.7966" gradientUnits="userSpaceOnUse">
<stop stop-color="#CE71DA"/>
<stop offset="0.0909091" stop-color="#CF72D9"/>
<stop offset="0.181818" stop-color="#D074D9"/>
<stop offset="0.272727" stop-color="#D276D9"/>
<stop offset="0.363636" stop-color="#D377D8"/>
<stop offset="0.454545" stop-color="#D479D7"/>
<stop offset="0.545455" stop-color="#D47AD6"/>
<stop offset="0.636364" stop-color="#D57BD5"/>
<stop offset="0.727273" stop-color="#D67BD3"/>
<stop offset="0.818182" stop-color="#D67CD2"/>
<stop offset="0.909091" stop-color="#D67CD0"/>
<stop offset="1" stop-color="#D77DCF"/>
</linearGradient>
<linearGradient id="paint2_linear_21536_192" x1="54.1001" y1="42.471" x2="54.1001" y2="56.7933" gradientUnits="userSpaceOnUse">
<stop stop-color="#C86AE2"/>
<stop offset="0.0555556" stop-color="#C96BE1"/>
<stop offset="0.111111" stop-color="#CA6DE1"/>
<stop offset="0.166667" stop-color="#CC6FE1"/>
<stop offset="0.222222" stop-color="#CD71E0"/>
<stop offset="0.277778" stop-color="#CE72E0"/>
<stop offset="0.333333" stop-color="#CF74DF"/>
<stop offset="0.388889" stop-color="#D175DE"/>
<stop offset="0.444444" stop-color="#D276DD"/>
<stop offset="0.5" stop-color="#D277DC"/>
<stop offset="0.555556" stop-color="#D378DB"/>
<stop offset="0.611111" stop-color="#D479DA"/>
<stop offset="0.666667" stop-color="#D57AD9"/>
<stop offset="0.722222" stop-color="#D57BD7"/>
<stop offset="0.777778" stop-color="#D67BD6"/>
<stop offset="0.833333" stop-color="#D67CD4"/>
<stop offset="0.888889" stop-color="#D67CD2"/>
<stop offset="0.944444" stop-color="#D67CD0"/>
<stop offset="1" stop-color="#D77DCF"/>
</linearGradient>
<clipPath id="clip0_21536_192">
<rect width="72.1934" height="55.5977" fill="white" transform="translate(18 26.25)"/>
</clipPath>
</defs>
</svg>
