<svg width="108" height="108" viewBox="0 0 108 108" fill="none" xmlns="http://www.w3.org/2000/svg">
<g clip-path="url(#clip0_21530_117)">
<mask id="mask0_21530_117" style="mask-type:luminance" maskUnits="userSpaceOnUse" x="18" y="23" width="72" height="57">
<path d="M90 23.75H18V79.1988H90V23.75Z" fill="white"/>
</mask>
<g mask="url(#mask0_21530_117)">
<path fill-rule="evenodd" clip-rule="evenodd" d="M32.658 72.0901C34.6223 72.0901 36.2146 73.6814 36.2146 75.6442C36.2146 77.6074 34.6223 79.1988 32.658 79.1988C30.6936 79.1988 29.1012 77.6074 29.1012 75.6442C29.1012 73.6814 30.6936 72.0901 32.658 72.0901ZM76.4053 40.1891C78.9843 47.209 72.493 57.1614 60.9338 63.3817C55.3318 66.4918 49.2854 68.1799 44.0394 68.1799C38.3487 68.1799 34.1695 66.225 32.2134 62.6709C30.2571 59.1163 30.8796 54.5845 33.9028 49.7859C34.7031 48.5418 35.6811 47.2978 36.6592 46.2318C36.2146 48.2754 36.1257 50.4079 36.4814 52.452C34.5252 55.7398 34.0806 58.7611 35.3255 60.9824C36.6592 63.3817 39.6824 64.7145 44.0394 64.7145C48.663 64.7145 54.0869 63.2041 59.2445 60.3604C68.6695 55.2065 74.6272 47.0314 73.2043 41.7886C74.3603 41.522 75.5164 40.9889 76.4053 40.1891ZM54.4667 40.1862C53.4461 40.1862 53.1164 40.6551 52.8704 41.2853L51.6981 45.1044H49.8341C49.5856 44.5675 49.4993 43.96 48.625 43.96V43.9571L46.8061 43.9725C46.0389 43.9725 45.7851 44.4361 45.971 45.1044L47.6461 52.2761C48.0176 53.6019 48.264 53.8387 48.515 53.8387H49.0019H54.1816C55.2597 53.8387 55.5949 53.6144 55.9614 52.6238L59.5105 41.1618C59.7907 40.3727 59.0786 40.1862 58.7359 40.1862H54.4667ZM53.1089 36.3681C59.0019 36.3681 63.7792 41.1422 63.7792 47.0314C63.7792 52.9206 59.0019 57.6946 53.1089 57.6946C47.2159 57.6946 42.4389 52.9206 42.4389 47.0314C42.4389 41.1422 47.2159 36.3681 53.1089 36.3681ZM71.7818 31.2142C73.7462 31.2142 75.3384 32.8056 75.3384 34.7687C75.3384 36.7317 73.7462 38.3231 71.7818 38.3231C69.8173 38.3231 68.2251 36.7317 68.2251 34.7687C68.2251 32.8056 69.8173 31.2142 71.7818 31.2142ZM70.1812 23.75C78.895 23.75 85.3863 26.6824 88.3205 32.1028C91.2547 37.4345 90.2766 44.4545 85.9195 51.7408C81.3848 58.7611 73.9159 65.3366 64.9349 70.224C56.4879 74.8446 47.5961 77.4215 39.6824 77.7771C39.8603 77.0663 40.0381 76.355 40.0381 75.6442C40.0381 75.111 39.9492 74.667 39.8603 74.2225C47.1517 73.8669 55.3318 71.3792 63.1568 67.1138C71.6037 62.404 78.6282 56.273 82.8073 49.7859C86.72 43.6549 87.6981 37.8788 85.3863 33.7023C83.0741 29.5259 77.7394 27.2155 70.3589 27.2155C62.6231 27.2155 53.6425 29.7925 45.1951 34.4132C28.212 43.6549 17.9865 58.9387 22.877 67.8247C23.7662 69.5132 25.1 70.846 26.7894 71.8232C26.078 72.8009 25.7224 73.9561 25.6334 75.2002C23.1437 73.9561 21.0986 71.912 19.676 69.5132C13.7185 58.5831 24.1218 41.7886 43.328 31.392C52.3088 26.4158 61.8231 23.75 70.1812 23.75Z" fill="white"/>
<path fill-rule="evenodd" clip-rule="evenodd" d="M48.6414 43.9283L46.8246 43.9434C46.0587 43.9434 45.8052 44.4095 45.9907 45.0798L47.6638 52.2815C48.0348 53.6127 48.2808 53.8508 48.5314 53.8508H49.0179C49.5157 52.3891 51.3809 46.5419 51.5194 45.0798H49.8488C49.6008 44.5408 49.5144 43.9308 48.6414 43.9308V43.9283Z" stroke="white" stroke-width="0.573248" stroke-miterlimit="8"/>
<path fill-rule="evenodd" clip-rule="evenodd" d="M54.4603 40.1732H58.7249C59.0676 40.1732 59.7784 40.3601 59.4987 41.1504L55.9533 52.6309C55.5872 53.6231 55.2525 53.8478 54.1752 53.8478H48.5144C48.81 53.8478 49.121 53.2925 49.495 52.2823L52.8653 41.2741C53.1112 40.6429 53.4406 40.1732 54.4603 40.1732Z" stroke="white" stroke-width="0.573248" stroke-miterlimit="8"/>
</g>
</g>
<defs>
<clipPath id="clip0_21530_117">
<rect width="72" height="55.4488" fill="white" transform="translate(18 23.75)"/>
</clipPath>
</defs>
</svg>
