<svg width="108" height="108" viewBox="0 0 108 108" fill="none" xmlns="http://www.w3.org/2000/svg">
<path fill-rule="evenodd" clip-rule="evenodd" d="M35.1479 71.5108C36.8945 71.5108 38.3104 72.9258 38.3104 74.6711C38.3104 76.4168 36.8945 77.8317 35.1479 77.8317C33.4012 77.8317 31.9853 76.4168 31.9853 74.6711C31.9853 72.9258 33.4012 71.5108 35.1479 71.5108ZM74.0472 43.1451C76.3404 49.387 70.5685 58.2365 60.2903 63.7675C55.3091 66.533 49.9327 68.034 45.2681 68.034C40.208 68.034 36.492 66.2957 34.7526 63.1354C33.0131 59.9748 33.5666 55.9452 36.2548 51.6784C36.9663 50.5722 37.836 49.466 38.7057 48.5181C38.3104 50.3353 38.2313 52.2315 38.5476 54.049C36.8082 56.9724 36.4129 59.659 37.5198 61.6341C38.7057 63.7675 41.3939 64.9526 45.2681 64.9526C49.3792 64.9526 54.2021 63.6096 58.7882 61.081C67.1687 56.4983 72.4661 49.2291 71.2009 44.5673C72.2289 44.3303 73.2569 43.8562 74.0472 43.1451ZM54.5399 43.1425C53.6324 43.1425 53.3391 43.5594 53.1204 44.1198L52.078 47.5157H50.4206C50.1996 47.0382 50.1229 46.4981 49.3455 46.4981V46.4955L47.7281 46.5092C47.046 46.5092 46.8203 46.9215 46.9856 47.5157L48.4751 53.8926C48.8054 55.0714 49.0245 55.282 49.2476 55.282H49.6806H54.2863C55.2449 55.282 55.543 55.0826 55.8688 54.2018L59.0247 44.01C59.2738 43.3084 58.6406 43.1425 58.3359 43.1425H54.5399ZM53.3325 39.7475C58.5724 39.7475 62.8203 43.9926 62.8203 49.2291C62.8203 54.4657 58.5724 58.7107 53.3325 58.7107C48.0925 58.7107 43.8449 54.4657 43.8449 49.2291C43.8449 43.9926 48.0925 39.7475 53.3325 39.7475ZM69.9361 35.1648C71.6828 35.1648 73.0986 36.5798 73.0986 38.3253C73.0986 40.0708 71.6828 41.4858 69.9361 41.4858C68.1893 41.4858 66.7736 40.0708 66.7736 38.3253C66.7736 36.5798 68.1893 35.1648 69.9361 35.1648ZM68.5129 28.5277C76.2611 28.5277 82.033 31.1351 84.642 35.9549C87.2511 40.6957 86.3814 46.9378 82.5071 53.4166C78.4749 59.6589 71.8337 65.5057 63.8479 69.8515C56.337 73.9601 48.4306 76.2514 41.3939 76.5676C41.5521 75.9356 41.7102 75.3032 41.7102 74.6711C41.7102 74.197 41.6311 73.8022 41.5521 73.407C48.0354 73.0908 55.3091 70.8788 62.2669 67.0861C69.7778 62.8982 76.0238 57.4466 79.7398 51.6784C83.2189 46.2267 84.0886 41.0908 82.033 37.3772C79.977 33.6636 75.2335 31.6092 68.6708 31.6092C61.7924 31.6092 53.807 33.9006 46.2957 38.0092C31.1947 46.2267 22.1023 59.8169 26.4508 67.7181C27.2415 69.2195 28.4274 70.4046 29.9297 71.2736C29.2971 72.1429 28.9809 73.1701 28.9018 74.2763C26.688 73.1701 24.8695 71.3525 23.6045 69.2195C18.3072 59.5007 27.5577 44.5673 44.6355 35.3228C52.6211 30.8981 61.081 28.5277 68.5129 28.5277Z" fill="#004F55"/>
<path fill-rule="evenodd" clip-rule="evenodd" d="M49.3481 46.47L47.7411 46.4833C47.0634 46.4833 46.8391 46.8978 47.0034 47.4939L48.4832 53.8975C48.8117 55.0811 49.0289 55.2928 49.251 55.2928H49.6814C50.1384 53.9931 51.8708 48.7939 51.9935 47.4939H50.4165C50.197 47.0145 50.1206 46.4722 49.3481 46.4722V46.47Z" stroke="#004F55" stroke-width="0.509722" stroke-miterlimit="8"/>
<path fill-rule="evenodd" clip-rule="evenodd" d="M54.5341 43.1309H58.3261C58.6308 43.1309 59.2628 43.297 59.0141 43.9997L55.8616 54.208C55.5361 55.0903 55.2384 55.2901 54.2805 55.2901H49.2471C49.5099 55.2901 49.7864 54.7963 50.119 53.8981L53.1158 44.1097C53.3345 43.5485 53.6273 43.1309 54.5341 43.1309Z" stroke="#004F55" stroke-width="0.509722" stroke-miterlimit="8"/>
</svg>
