<?xml version="1.0" encoding="UTF-8" standalone="no"?>
<svg
   width="512"
   height="512"
   viewBox="0 0 512 512"
   fill="none"
   version="1.1"
   id="svg38"
   xml:space="preserve"
   xmlns="http://www.w3.org/2000/svg"
   xmlns:svg="http://www.w3.org/2000/svg"><path
     d="M 512,2.2e-6 H 2.2e-6 V 512 H 512 Z"
     fill="#294062"
     id="path1"
     style="stroke-width:4.74074"
     clip-path="url(#clipPath54)" /><path
     fill-rule="evenodd"
     clip-rule="evenodd"
     d="m 343.55532,46.172114 c 1.06145,2.366436 0.002,5.145458 -2.36468,6.206436 -2.36658,1.060978 -5.14466,0.0024 -6.20611,-2.364207 -1.06098,-2.366578 -0.004,-5.145269 2.36468,-6.206531 2.36658,-1.060788 5.14466,-0.0025 6.20611,2.364302 z"
     fill="#d2d2d2"
     stroke="#d2d2d2"
     stroke-width="5.68889"
     stroke-miterlimit="8"
     id="path2-3"
     clip-path="url(#clipPath53)" /><path
     fill-rule="evenodd"
     clip-rule="evenodd"
     d="m 34.478651,108.37855 c 1.061025,2.36658 0.0025,5.1456 -2.364113,6.20658 -2.366578,1.06097 -5.145458,0.002 -6.206483,-2.36421 -1.061025,-2.36658 -0.0027,-5.14513 2.364113,-6.20658 2.366578,-1.0605 5.145458,-0.002 6.206483,2.36421 z"
     fill="#d2d2d2"
     stroke="#d2d2d2"
     stroke-width="5.68889"
     stroke-miterlimit="8"
     id="path3"
     clip-path="url(#clipPath52)" /><path
     fill-rule="evenodd"
     clip-rule="evenodd"
     d="m 116.12113,135.10874 c 1.06097,2.36658 0.002,5.1456 -2.36421,6.20658 -2.36658,1.06098 -5.1456,0.003 -6.20658,-2.36373 -1.06098,-2.36706 -0.002,-5.1456 2.36421,-6.20658 2.36658,-1.06098 5.14513,-0.003 6.20658,2.36373 z"
     fill="#d2d2d2"
     stroke="#d2d2d2"
     stroke-width="5.68889"
     stroke-miterlimit="8"
     id="path4"
     clip-path="url(#clipPath51)" /><path
     fill-rule="evenodd"
     clip-rule="evenodd"
     d="m 66.415409,139.11372 c 2.12243,4.73363 0.0052,10.29073 -4.727941,12.41315 -4.733629,2.12196 -10.290726,0.005 -12.413155,-4.72841 -2.121908,-4.73316 -0.0052,-10.29073 4.727941,-12.41268 4.733629,-2.12243 10.291199,-0.005 12.413155,4.72794 z"
     fill="#d2d2d2"
     stroke="#d2d2d2"
     stroke-width="5.68889"
     stroke-miterlimit="8"
     id="path5-6"
     clip-path="url(#clipPath50)" /><path
     fill-rule="evenodd"
     clip-rule="evenodd"
     d="m 237.11526,38.63391 c 0.43852,2.556492 -1.27668,4.984699 -3.83336,5.423881 -2.55716,0.438993 -4.98584,-1.277203 -5.42436,-3.833694 -0.43852,-2.556255 1.27858,-4.984463 3.83336,-5.423455 2.55716,-0.439182 4.98584,1.277013 5.42436,3.833268 z"
     fill="#d2d2d2"
     stroke="#d2d2d2"
     stroke-width="5.68889"
     stroke-miterlimit="8"
     id="path6-7"
     clip-path="url(#clipPath48)" /><path
     fill-rule="evenodd"
     clip-rule="evenodd"
     d="m 375.1149,27.0693 c 0.439,2.556302 -1.2762,4.984699 -3.83289,5.423692 -2.55715,0.439182 -4.98583,-1.277203 -5.42435,-3.833695 -0.43852,-2.556065 1.27858,-4.98451 3.83336,-5.423502 2.55668,-0.439183 4.98536,1.27725 5.42388,3.833505 z"
     fill="#d2d2d2"
     stroke="#d2d2d2"
     stroke-width="5.68889"
     stroke-miterlimit="8"
     id="path7-5"
     clip-path="url(#clipPath41)" /><path
     fill-rule="evenodd"
     clip-rule="evenodd"
     d="m 37.940482,280.75378 c 0.438945,2.55668 -1.277203,4.98536 -3.833695,5.42388 -2.556302,0.43852 -4.984509,-1.27858 -5.423692,-3.83336 -0.438992,-2.55669 1.277393,-4.98537 3.833505,-5.42389 2.556445,-0.43851 4.9847,1.27621 5.423882,3.83337 z"
     fill="#d2d2d2"
     stroke="#d2d2d2"
     stroke-width="5.68889"
     stroke-miterlimit="8"
     id="path8-3"
     clip-path="url(#clipPath40)" /><path
     fill-rule="evenodd"
     clip-rule="evenodd"
     d="m 205.97902,33.143753 c 0.87799,5.112557 -2.55431,9.969019 -7.6672,10.847147 -5.11241,0.878364 -9.96883,-2.554406 -10.84729,-7.666726 -0.87798,-5.112794 2.55432,-9.969209 7.6672,-10.847384 5.11242,-0.878175 9.96931,2.554406 10.84729,7.666963 z"
     fill="#d2d2d2"
     stroke="#d2d2d2"
     stroke-width="5.68889"
     stroke-miterlimit="8"
     id="path9-5"
     clip-path="url(#clipPath39)" /><path
     fill-rule="evenodd"
     clip-rule="evenodd"
     d="m 318.06483,471.97535 c 2.36658,-1.06146 5.14465,-0.002 6.2061,2.3642 1.06098,2.36563 0.002,5.14371 -2.36468,6.20563 -2.36658,1.06193 -5.14465,0.005 -6.2061,-2.36563 -1.06098,-2.36563 -0.002,-5.14323 2.36468,-6.2042 z"
     fill="#d2d2d2"
     stroke="#d2d2d2"
     stroke-width="5.68889"
     stroke-miterlimit="8"
     id="path10-6"
     clip-path="url(#clipPath38)" /><path
     fill-rule="evenodd"
     clip-rule="evenodd"
     d="m 344.79407,390.33221 c 2.36658,-1.06098 5.14466,-0.002 6.20611,2.36468 1.06097,2.36658 0.002,5.14465 -2.36468,6.2061 -2.36658,1.06098 -5.14466,0.002 -6.20611,-2.36468 -1.06098,-2.36658 -0.002,-5.14465 2.36468,-6.2061 z"
     fill="#d2d2d2"
     stroke="#d2d2d2"
     stroke-width="5.68889"
     stroke-miterlimit="8"
     id="path11-2"
     clip-path="url(#clipPath37)" /><path
     fill-rule="evenodd"
     clip-rule="evenodd"
     d="m 348.79953,440.03887 c 4.73315,-2.12243 10.29167,-0.006 12.4122,4.727 2.12243,4.73315 0.006,10.29167 -4.72699,12.4141 -4.73316,2.12006 -10.29167,0.004 -12.4141,-4.72936 -2.12054,-4.73316 -0.004,-10.29168 4.72889,-12.41174 z"
     fill="#d2d2d2"
     stroke="#d2d2d2"
     stroke-width="5.68889"
     stroke-miterlimit="8"
     id="path12-9"
     clip-path="url(#clipPath34)" /><path
     fill-rule="evenodd"
     clip-rule="evenodd"
     d="m 475.44889,422.13215 c 2.55526,-0.43852 4.98726,1.27857 5.4234,3.83526 0.44089,2.55478 -1.27525,4.98346 -3.83525,5.42198 -2.55052,0.44089 -4.9811,-1.27621 -5.42199,-3.83336 -0.43852,-2.55479 1.27858,-4.98347 3.83384,-5.42388 z"
     fill="#d2d2d2"
     stroke="#d2d2d2"
     stroke-width="5.68889"
     stroke-miterlimit="8"
     id="path13-1"
     clip-path="url(#clipPath33)" /><path
     fill-rule="evenodd"
     clip-rule="evenodd"
     d="m 439.37849,355.98175 c 2.36658,-1.06098 5.14465,-0.004 6.2061,2.36278 1.06098,2.36658 0.002,5.14655 -2.36468,6.208 -2.36658,1.06098 -5.14465,0.002 -6.2061,-2.36468 -1.06098,-2.36658 -0.002,-5.14465 2.36468,-6.2061 z"
     fill="#d2d2d2"
     stroke="#d2d2d2"
     stroke-width="5.68889"
     stroke-miterlimit="8"
     id="path14-2"
     clip-path="url(#clipPath7)" /><path
     fill-rule="evenodd"
     clip-rule="evenodd"
     d="m 254.07858,444.32308 c 2.36658,-1.06145 5.14655,-0.002 6.20563,2.36421 1.06145,2.36658 0.004,5.14512 -2.36231,6.2061 -2.36658,1.06145 -5.14655,0.002 -6.208,-2.36421 -1.05909,-2.36657 -0.002,-5.14512 2.36468,-6.2061 z"
     fill="#d2d2d2"
     stroke="#d2d2d2"
     stroke-width="5.68889"
     stroke-miterlimit="8"
     id="path15-7"
     clip-path="url(#clipPath4)" /><path
     fill-rule="evenodd"
     clip-rule="evenodd"
     d="m 452.01872,55.693276 c 1.06098,2.366578 0.002,5.1456 -2.36468,6.206578 -2.36657,1.060977 -5.14465,0.0028 -6.2061,-2.363734 -1.06098,-2.367052 -0.002,-5.1456 2.36468,-6.206578 2.36658,-1.061451 5.14465,-0.0028 6.2061,2.363734 z"
     fill="#d2d2d2"
     stroke="#d2d2d2"
     stroke-width="5.68889"
     stroke-miterlimit="8"
     id="path16-0"
     clip-path="url(#clipPath3)" /><path
     fill-rule="evenodd"
     clip-rule="evenodd"
     d="m 167.92936,464.85855 c 4.73316,-2.12054 10.29073,-0.004 12.41269,4.72889 2.12195,4.73315 0.005,10.29404 -4.72795,12.41315 -4.73315,2.12385 -10.29072,0.005 -12.41315,-4.72652 -2.12196,-4.73458 -0.005,-10.29309 4.72841,-12.41552 z"
     fill="#d2d2d2"
     stroke="#d2d2d2"
     stroke-width="5.68889"
     stroke-miterlimit="8"
     id="path17-9"
     clip-path="url(#clipPath2)" /><path
     fill-rule="evenodd"
     clip-rule="evenodd"
     d="m 130.60409,445.84723 c 2.36658,-1.06098 5.14513,-0.002 6.2061,2.36468 1.06098,2.36658 0.003,5.14465 -2.36373,6.2061 -2.36705,1.06098 -5.1456,0.002 -6.20705,-2.36468 -1.06098,-2.36658 -0.002,-5.14465 2.36468,-6.2061 z"
     fill="#d2d2d2"
     stroke="#d2d2d2"
     stroke-width="5.68889"
     stroke-miterlimit="8"
     id="path18-3"
     clip-path="url(#clipPath1)" /><path
     fill-rule="evenodd"
     clip-rule="evenodd"
     d="m 32.6078,74.8431 c 1.9746,0 3.5753,1.5997 3.5753,3.5727 0,1.9735 -1.6007,3.5732 -3.5753,3.5732 -1.9746,0 -3.5753,-1.5997 -3.5753,-3.5732 0,-1.973 1.6007,-3.5727 3.5753,-3.5727 z M 76.5841,42.7752 c 2.5925,7.0566 -3.9327,17.0611 -15.5524,23.3139 -5.6313,3.1264 -11.7094,4.8233 -16.9828,4.8233 -5.7206,0 -9.9216,-1.9651 -11.888,-5.5378 -1.9664,-3.5732 -1.3407,-8.1287 1.6983,-12.9524 0.8045,-1.2506 1.7876,-2.5011 2.7709,-3.5728 -0.447,2.0544 -0.5363,4.1981 -0.1788,6.2529 -1.9664,3.3049 -2.4134,6.3421 -1.1619,8.575 1.3407,2.4118 4.3797,3.7517 8.7595,3.7517 4.6477,0 10.1001,-1.5184 15.2847,-4.377 9.4743,-5.1808 15.4631,-13.3987 14.0328,-18.669 1.1621,-0.2679 2.3243,-0.8039 3.2177,-1.6078 z m -23.4183,-3.841 c 5.9238,0 10.7262,4.7991 10.7262,10.7191 0,5.92 -4.8024,10.719 -10.7262,10.719 -5.9238,0 -10.7258,-4.799 -10.7258,-10.719 0,-5.92 4.802,-10.7191 10.7258,-10.7191 z m 18.7706,-5.1809 c 1.9748,0 3.5753,1.5997 3.5753,3.573 0,1.9734 -1.6005,3.573 -3.5753,3.573 -1.9747,0 -3.5752,-1.5996 -3.5752,-3.573 0,-1.9733 1.6005,-3.573 3.5752,-3.573 z M 70.3275,26.25 c 8.7595,0 15.2847,2.9477 18.2342,8.3966 2.9496,5.3595 1.9664,12.4163 -2.4135,19.7407 -4.5584,7.0571 -12.0664,13.6669 -21.0945,18.5799 -8.4912,4.6448 -17.4295,7.2352 -25.3846,7.5927 0.1788,-0.7145 0.3575,-1.4295 0.3575,-2.1441 0,-0.536 -0.0894,-0.9823 -0.1787,-1.4291 7.3295,-0.3574 15.5525,-2.8582 23.4184,-7.1459 8.4912,-4.7344 15.5524,-10.8976 19.7534,-17.4186 3.9332,-6.1632 4.9163,-11.9695 2.5925,-16.1678 -2.3243,-4.1982 -7.687,-6.5207 -15.1061,-6.5207 -7.7762,0 -16.8039,2.5904 -25.2955,7.2353 -17.0719,9.29 -27.351,24.6539 -22.4349,33.5864 0.8938,1.6973 2.2346,3.0371 3.9329,4.0195 -0.7151,0.9827 -1.0727,2.144 -1.162,3.3946 C 23.0438,76.7189 20.988,74.6641 19.5579,72.2527 13.5693,61.2654 24.0271,44.383 43.3338,33.932 52.3616,28.9297 61.9256,26.25 70.3275,26.25 Z"
     fill="url(#paint0_linear_21536_192)"
     id="path2"
     style="fill:url(#paint0_linear_21536_192)"
     mask="url(#mask42)"
     clip-path="url(#clipPath45)"
     transform="matrix(4.8757921,0,0,4.8757921,-7.7642565,-3.9895426)" /><defs
     id="defs38"><linearGradient
       id="paint0_linear_21536_192"
       x1="63.9687"
       y1="18.8647"
       x2="44.154999"
       y2="89.374199"
       gradientUnits="userSpaceOnUse"><stop
         stop-color="#B550FA"
         id="stop5" /><stop
         offset="0.5"
         stop-color="#D378D4"
         id="stop6" /><stop
         offset="1"
         stop-color="#F2A0AF"
         id="stop7" /></linearGradient><linearGradient
       id="paint1_linear_21536_192"
       x1="48.853401"
       y1="46.2435"
       x2="48.853401"
       y2="56.7966"
       gradientUnits="userSpaceOnUse"><stop
         stop-color="#CE71DA"
         id="stop8" /><stop
         offset="0.0909091"
         stop-color="#CF72D9"
         id="stop9" /><stop
         offset="0.181818"
         stop-color="#D074D9"
         id="stop10" /><stop
         offset="0.272727"
         stop-color="#D276D9"
         id="stop11" /><stop
         offset="0.363636"
         stop-color="#D377D8"
         id="stop12" /><stop
         offset="0.454545"
         stop-color="#D479D7"
         id="stop13" /><stop
         offset="0.545455"
         stop-color="#D47AD6"
         id="stop14" /><stop
         offset="0.636364"
         stop-color="#D57BD5"
         id="stop15" /><stop
         offset="0.727273"
         stop-color="#D67BD3"
         id="stop16" /><stop
         offset="0.818182"
         stop-color="#D67CD2"
         id="stop17" /><stop
         offset="0.909091"
         stop-color="#D67CD0"
         id="stop18" /><stop
         offset="1"
         stop-color="#D77DCF"
         id="stop19" /></linearGradient><linearGradient
       id="paint2_linear_21536_192"
       x1="54.100101"
       y1="42.471001"
       x2="54.100101"
       y2="56.793301"
       gradientUnits="userSpaceOnUse"><stop
         stop-color="#C86AE2"
         id="stop20" /><stop
         offset="0.0555556"
         stop-color="#C96BE1"
         id="stop21" /><stop
         offset="0.111111"
         stop-color="#CA6DE1"
         id="stop22" /><stop
         offset="0.166667"
         stop-color="#CC6FE1"
         id="stop23" /><stop
         offset="0.222222"
         stop-color="#CD71E0"
         id="stop24" /><stop
         offset="0.277778"
         stop-color="#CE72E0"
         id="stop25" /><stop
         offset="0.333333"
         stop-color="#CF74DF"
         id="stop26" /><stop
         offset="0.388889"
         stop-color="#D175DE"
         id="stop27" /><stop
         offset="0.444444"
         stop-color="#D276DD"
         id="stop28" /><stop
         offset="0.5"
         stop-color="#D277DC"
         id="stop29" /><stop
         offset="0.555556"
         stop-color="#D378DB"
         id="stop30" /><stop
         offset="0.611111"
         stop-color="#D479DA"
         id="stop31" /><stop
         offset="0.666667"
         stop-color="#D57AD9"
         id="stop32" /><stop
         offset="0.722222"
         stop-color="#D57BD7"
         id="stop33" /><stop
         offset="0.777778"
         stop-color="#D67BD6"
         id="stop34" /><stop
         offset="0.833333"
         stop-color="#D67CD4"
         id="stop35" /><stop
         offset="0.888889"
         stop-color="#D67CD2"
         id="stop36" /><stop
         offset="0.944444"
         stop-color="#D67CD0"
         id="stop37" /><stop
         offset="1"
         stop-color="#D77DCF"
         id="stop38" /></linearGradient><mask
       maskUnits="userSpaceOnUse"
       id="mask41"><g
         id="g42"><path
           d="M 90.2499,26.25 H 17.873 v 55.739 h 72.3769 z"
           fill="#ffffff"
           id="path41" /></g></mask><mask
       maskUnits="userSpaceOnUse"
       id="mask42"><g
         id="g43"><path
           d="M 90.2499,26.25 H 17.873 v 55.739 h 72.3769 z"
           fill="#ffffff"
           id="path42" /></g></mask><clipPath
       clipPathUnits="userSpaceOnUse"
       id="clipPath43"><g
         id="g45"><g
           id="g44"><rect
             width="72.193398"
             height="55.597698"
             fill="#ffffff"
             id="rect43"
             x="18"
             y="26.25" /></g></g></clipPath><clipPath
       clipPathUnits="userSpaceOnUse"
       id="clipPath45"><g
         id="g47"><g
           id="g46"><rect
             width="72.193398"
             height="55.597698"
             fill="#ffffff"
             id="rect45"
             x="18"
             y="26.25" /></g></g></clipPath><clipPath
       clipPathUnits="userSpaceOnUse"
       id="clipPath36"><g
         id="g37"><rect
           width="108"
           height="108"
           fill="#ffffff"
           id="rect36"
           x="0"
           y="0" /></g></clipPath><clipPath
       clipPathUnits="userSpaceOnUse"
       id="clipPath35"><g
         id="g36"><rect
           width="108"
           height="108"
           fill="#ffffff"
           id="rect35"
           x="0"
           y="0" /></g></clipPath><clipPath
       clipPathUnits="userSpaceOnUse"
       id="clipPath30"><g
         id="g31"><rect
           width="108"
           height="108"
           fill="#ffffff"
           id="rect30"
           x="0"
           y="0" /></g></clipPath><clipPath
       clipPathUnits="userSpaceOnUse"
       id="clipPath21"><g
         id="g22"><rect
           width="108"
           height="108"
           fill="#ffffff"
           id="rect21"
           x="0"
           y="0" /></g></clipPath><clipPath
       clipPathUnits="userSpaceOnUse"
       id="clipPath49"><path
         d="M 0,807 H 712 V 0 H 0 Z"
         transform="matrix(1.3333333,0,0,-1.3333333,0,1076)"
         id="path49" /></clipPath><mask
       maskUnits="userSpaceOnUse"
       x="0"
       y="0"
       width="1"
       height="1"
       id="mask3"><path
         id="path4-6"
         d="m 163.75,548.25 h 384.5 v -384.5 h -384.5 z"
         style="fill:#000000;fill-opacity:1;fill-rule:nonzero;stroke:none"
         transform="matrix(1.3333333,0,0,-1.3333333,0,1076)"
         clip-path="url(#clipPath5)" /><g
         id="g7"
         clip-path="url(#clipPath8)"><path
           d="M 99.917,612.083 H 612.586 V 99.414 H 99.917 Z"
           style="fill:#ffffff icc-color(sRGB-IEC61966-2, 0.1, 1, 1, 1);fill-opacity:1;fill-rule:nonzero;stroke:none"
           transform="matrix(1.3333333,0,0,-1.3333333,0,1076)"
           clip-path="url(#clipPath6)"
           id="path7" /></g></mask><clipPath
       clipPathUnits="userSpaceOnUse"
       id="clipPath5"><path
         d="m 163.75,548.25 h 384.5 v -384.5 h -384.5 z"
         id="path5" /></clipPath><clipPath
       clipPathUnits="userSpaceOnUse"
       id="clipPath8"><path
         d="m 163.75,548.25 h 384.5 v -384.5 h -384.5 z"
         transform="matrix(1.3333333,0,0,-1.3333333,0,1076)"
         id="path8" /></clipPath><clipPath
       clipPathUnits="userSpaceOnUse"
       id="clipPath6"><path
         d="m 163.75,548.25 h 384.5 v -384.5 h -384.5 z"
         id="path6" /></clipPath><clipPath
       clipPathUnits="userSpaceOnUse"
       id="clipPath10"><path
         d="m 163.75,548.25 h 384.5 v -384.5 h -384.5 z"
         transform="matrix(1.3333333,0,0,-1.3333333,0,1076)"
         id="path10" /></clipPath><clipPath
       clipPathUnits="userSpaceOnUse"
       id="clipPath9"><path
         d="M 164,548 H 548 V 164 H 164 Z"
         id="path9" /></clipPath><clipPath
       clipPathUnits="userSpaceOnUse"
       id="clipPath11"><path
         d="m 163.75,548.25 h 384.5 v -384.5 h -384.5 z"
         id="path11" /></clipPath><clipPath
       clipPathUnits="userSpaceOnUse"
       id="clipPath12"><path
         d="m 163.75,548.25 h 384.5 v -384.5 h -384.5 z"
         transform="translate(-183.0039,-484.00001)"
         id="path12" /></clipPath><clipPath
       clipPathUnits="userSpaceOnUse"
       id="clipPath13"><path
         d="m 163.75,548.25 h 384.5 v -384.5 h -384.5 z"
         transform="translate(-231.00391,-532.00001)"
         id="path13" /></clipPath><clipPath
       clipPathUnits="userSpaceOnUse"
       id="clipPath14"><path
         d="m 163.75,548.25 h 384.5 v -384.5 h -384.5 z"
         transform="translate(-207.00391,-508.00001)"
         id="path14" /></clipPath><clipPath
       clipPathUnits="userSpaceOnUse"
       id="clipPath15"><path
         d="m 163.75,548.25 h 384.5 v -384.5 h -384.5 z"
         transform="translate(-356.00001,-532.00001)"
         id="path15" /></clipPath><clipPath
       clipPathUnits="userSpaceOnUse"
       id="clipPath16"><path
         d="m 163.75,548.25 h 384.5 v -384.5 h -384.5 z"
         transform="translate(-356.00001,-436.00001)"
         id="path16" /></clipPath><clipPath
       clipPathUnits="userSpaceOnUse"
       id="clipPath18"><path
         d="m 163.75,548.25 h 384.5 v -384.5 h -384.5 z"
         transform="matrix(1.3333333,0,0,-1.3333333,0,1076)"
         id="path18" /></clipPath><clipPath
       clipPathUnits="userSpaceOnUse"
       id="clipPath17"><path
         d="M 164.066,547.968 H 547.999 V 163.956 H 164.066 Z"
         transform="translate(-164.41941,-164.30961)"
         id="path17" /></clipPath><clipPath
       clipPathUnits="userSpaceOnUse"
       id="clipPath20"><path
         d="m 163.75,548.25 h 384.5 v -384.5 h -384.5 z"
         transform="matrix(1.3333333,0,0,-1.3333333,0,1076)"
         id="path20" /></clipPath><clipPath
       clipPathUnits="userSpaceOnUse"
       id="clipPath19"><path
         d="M 164.02,547.93 H 547.835 V 164.176 H 164.02 Z"
         transform="translate(-547.48141,-164.5293)"
         id="path19" /></clipPath><clipPath
       clipPathUnits="userSpaceOnUse"
       id="clipPath22"><path
         d="m 163.75,548.25 h 384.5 v -384.5 h -384.5 z"
         transform="matrix(1.3333333,0,0,-1.3333333,0,1076)"
         id="path22" /></clipPath><clipPath
       clipPathUnits="userSpaceOnUse"
       id="clipPath21-5"><path
         d="m 299.75,548.25 h 0.5 v -384.5 h -0.5 z"
         transform="translate(-300.00001,-548.00002)"
         id="path21" /></clipPath><clipPath
       clipPathUnits="userSpaceOnUse"
       id="clipPath24"><path
         d="m 163.75,548.25 h 384.5 v -384.5 h -384.5 z"
         transform="matrix(1.3333333,0,0,-1.3333333,0,1076)"
         id="path24" /></clipPath><clipPath
       clipPathUnits="userSpaceOnUse"
       id="clipPath23"><path
         d="m 355.75,548.25 h 0.5 v -384.5 h -0.5 z"
         transform="translate(-356.00001,-548.00002)"
         id="path23" /></clipPath><clipPath
       clipPathUnits="userSpaceOnUse"
       id="clipPath26"><path
         d="m 163.75,548.25 h 384.5 v -384.5 h -384.5 z"
         transform="matrix(1.3333333,0,0,-1.3333333,0,1076)"
         id="path26" /></clipPath><clipPath
       clipPathUnits="userSpaceOnUse"
       id="clipPath25"><path
         d="m 411.83,548.25 h 0.5 v -384.5 h -0.5 z"
         transform="translate(-412.08011,-548.00002)"
         id="path25" /></clipPath><clipPath
       clipPathUnits="userSpaceOnUse"
       id="clipPath28"><path
         d="m 163.75,548.25 h 384.5 v -384.5 h -384.5 z"
         transform="matrix(1.3333333,0,0,-1.3333333,0,1076)"
         id="path28" /></clipPath><clipPath
       clipPathUnits="userSpaceOnUse"
       id="clipPath27"><path
         d="m 163.9,412.1 h 383.933 v -0.2 H 163.9 Z"
         transform="translate(-547.73341,-412.00001)"
         id="path27" /></clipPath><clipPath
       clipPathUnits="userSpaceOnUse"
       id="clipPath30-3"><path
         d="m 163.75,548.25 h 384.5 v -384.5 h -384.5 z"
         transform="matrix(1.3333333,0,0,-1.3333333,0,1076)"
         id="path30" /></clipPath><clipPath
       clipPathUnits="userSpaceOnUse"
       id="clipPath29"><path
         d="m 163.9,356.1 h 383.933 v -0.2 H 163.9 Z"
         transform="translate(-547.73341,-356.00001)"
         id="path29" /></clipPath><clipPath
       clipPathUnits="userSpaceOnUse"
       id="clipPath32"><path
         d="m 163.75,548.25 h 384.5 v -384.5 h -384.5 z"
         transform="matrix(1.3333333,0,0,-1.3333333,0,1076)"
         id="path32" /></clipPath><clipPath
       clipPathUnits="userSpaceOnUse"
       id="clipPath31"><path
         d="m 163.75,300.25 h 384.233 v -0.5 H 163.75 Z"
         transform="translate(-547.73341,-300.00001)"
         id="path31" /></clipPath><clipPath
       clipPathUnits="userSpaceOnUse"
       id="clipPath1"><g
         id="g2"><rect
           width="512"
           height="512"
           fill="#ffffff"
           id="rect1"
           x="2.1999999e-06"
           y="2.1999999e-06"
           style="stroke-width:4.74074" /></g></clipPath><clipPath
       clipPathUnits="userSpaceOnUse"
       id="clipPath2"><g
         id="g3"><rect
           width="512"
           height="512"
           fill="#ffffff"
           id="rect2"
           x="2.1999999e-06"
           y="2.1999999e-06"
           style="stroke-width:4.74074" /></g></clipPath><clipPath
       clipPathUnits="userSpaceOnUse"
       id="clipPath3"><g
         id="g4"><rect
           width="512"
           height="512"
           fill="#ffffff"
           id="rect3"
           x="2.1999999e-06"
           y="2.1999999e-06"
           style="stroke-width:4.74074" /></g></clipPath><clipPath
       clipPathUnits="userSpaceOnUse"
       id="clipPath4"><g
         id="g5"><rect
           width="512"
           height="512"
           fill="#ffffff"
           id="rect4"
           x="2.1999999e-06"
           y="2.1999999e-06"
           style="stroke-width:4.74074" /></g></clipPath><clipPath
       clipPathUnits="userSpaceOnUse"
       id="clipPath7"><g
         id="g8"><rect
           width="512"
           height="512"
           fill="#ffffff"
           id="rect7"
           x="2.1999999e-06"
           y="2.1999999e-06"
           style="stroke-width:4.74074" /></g></clipPath><clipPath
       clipPathUnits="userSpaceOnUse"
       id="clipPath33"><g
         id="g33"><rect
           width="512"
           height="512"
           fill="#ffffff"
           id="rect33"
           x="2.1999999e-06"
           y="2.1999999e-06"
           style="stroke-width:4.74074" /></g></clipPath><clipPath
       clipPathUnits="userSpaceOnUse"
       id="clipPath34"><g
         id="g34"><rect
           width="512"
           height="512"
           fill="#ffffff"
           id="rect34"
           x="2.1999999e-06"
           y="2.1999999e-06"
           style="stroke-width:4.74074" /></g></clipPath><clipPath
       clipPathUnits="userSpaceOnUse"
       id="clipPath37"><g
         id="g38"><rect
           width="512"
           height="512"
           fill="#ffffff"
           id="rect37"
           x="2.1999999e-06"
           y="2.1999999e-06"
           style="stroke-width:4.74074" /></g></clipPath><clipPath
       clipPathUnits="userSpaceOnUse"
       id="clipPath38"><g
         id="g39"><rect
           width="512"
           height="512"
           fill="#ffffff"
           id="rect38"
           x="2.1999999e-06"
           y="2.1999999e-06"
           style="stroke-width:4.74074" /></g></clipPath><clipPath
       clipPathUnits="userSpaceOnUse"
       id="clipPath39"><g
         id="g40"><rect
           width="512"
           height="512"
           fill="#ffffff"
           id="rect39"
           x="2.1999999e-06"
           y="2.1999999e-06"
           style="stroke-width:4.74074" /></g></clipPath><clipPath
       clipPathUnits="userSpaceOnUse"
       id="clipPath40"><g
         id="g41"><rect
           width="512"
           height="512"
           fill="#ffffff"
           id="rect40"
           x="2.1999999e-06"
           y="2.1999999e-06"
           style="stroke-width:4.74074" /></g></clipPath><clipPath
       clipPathUnits="userSpaceOnUse"
       id="clipPath41"><g
         id="g48"><rect
           width="512"
           height="512"
           fill="#ffffff"
           id="rect41"
           x="2.1999999e-06"
           y="2.1999999e-06"
           style="stroke-width:4.74074" /></g></clipPath><clipPath
       clipPathUnits="userSpaceOnUse"
       id="clipPath48"><g
         id="g49"><rect
           width="512"
           height="512"
           fill="#ffffff"
           id="rect48"
           x="2.1999999e-06"
           y="2.1999999e-06"
           style="stroke-width:4.74074" /></g></clipPath><clipPath
       clipPathUnits="userSpaceOnUse"
       id="clipPath50"><g
         id="g50"><rect
           width="512"
           height="512"
           fill="#ffffff"
           id="rect50"
           x="2.1999999e-06"
           y="2.1999999e-06"
           style="stroke-width:4.74074" /></g></clipPath><clipPath
       clipPathUnits="userSpaceOnUse"
       id="clipPath51"><g
         id="g51"><rect
           width="512"
           height="512"
           fill="#ffffff"
           id="rect51"
           x="2.1999999e-06"
           y="2.1999999e-06"
           style="stroke-width:4.74074" /></g></clipPath><clipPath
       clipPathUnits="userSpaceOnUse"
       id="clipPath52"><g
         id="g52"><rect
           width="512"
           height="512"
           fill="#ffffff"
           id="rect52"
           x="2.1999999e-06"
           y="2.1999999e-06"
           style="stroke-width:4.74074" /></g></clipPath><clipPath
       clipPathUnits="userSpaceOnUse"
       id="clipPath53"><g
         id="g53"><rect
           width="512"
           height="512"
           fill="#ffffff"
           id="rect53"
           x="2.1999999e-06"
           y="2.1999999e-06"
           style="stroke-width:4.74074" /></g></clipPath><clipPath
       clipPathUnits="userSpaceOnUse"
       id="clipPath54"><g
         id="g54"><rect
           width="512"
           height="512"
           fill="#ffffff"
           id="rect54"
           x="2.1999999e-06"
           y="2.1999999e-06"
           style="stroke-width:4.74074" /></g></clipPath></defs></svg>
